<?xml version="1.0" encoding="utf-8"?>
<!-- Generator: Adobe Illustrator 23.0.0, SVG Export Plug-In . SVG Version: 6.00 Build 0)  -->
<svg version="1.1" id="레이어_1" xmlns="http://www.w3.org/2000/svg" xmlns:xlink="http://www.w3.org/1999/xlink" x="0px"
	 y="0px" viewBox="0 0 120.62 36.72" style="enable-background:new 0 0 120.62 36.72;" xml:space="preserve">
<path d="M9.22,5.43l2.01,1.94v8.14l-2.01,2.01L8.5,16.8V6.06L9.22,5.43z M8.5,30.31v-11.5l0.73-0.73l2.01,2.04v8.86l-2.01,1.94
	L8.5,30.31z M21.61,17.82l-1.35,1.32h-8.77l-1.38-1.32l1.38-1.35h8.77L21.61,17.82z M23.23,6.06V16.8l-0.73,0.73l-2.01-2.01V7.38
	l2.01-1.94L23.23,6.06z M22.5,30.94l-2.01-1.94v-8.86l2.01-2.04l0.73,0.73v11.5L22.5,30.94z"/>
<path d="M27.25,6.62l2.01,1.94v7.28l-2.01,2.01l-0.73-0.73V7.24L27.25,6.62z M26.52,30.71V19.14l0.73-0.73l2.01,2.04v8.93
	l-2.01,1.94L26.52,30.71z M39.6,6.06l-2.08,1.98h-7.61l-2.11-1.98l0.69-0.63h10.45L39.6,6.06z M39.31,18.15l-1.35,1.32h-8.44
	l-1.38-1.32l1.38-1.35h8.44L39.31,18.15z M40.92,7.24v9.89l-0.73,0.73l-2.01-2.01V8.56l2.01-1.94L40.92,7.24z M40.2,31.33
	l-2.01-1.94v-8.93l2.01-2.04l0.73,0.73v11.57L40.2,31.33z"/>
<path d="M44.94,5.43l2.01,1.94v8.47l-2.01,2.01l-0.73-0.73V6.06L44.94,5.43z M44.22,30.31V19.14l0.73-0.73l2.01,2.04v8.54
	l-2.01,1.94L44.22,30.31z M50.05,7.67l5.37,20.1l-0.26,1.19l-2.57-0.69l-4.71-18.06l1.42-2.83L50.05,7.67z M59.28,6.06v11.07
	l-0.73,0.73l-2.01-2.01V7.38l2.01-1.94L59.28,6.06z M58.55,30.94l-2.01-1.94v-8.54l2.01-2.04l0.73,0.73v11.17L58.55,30.94z"/>
<path d="M62.57,30.31l2.08-1.98h8.96l2.11,1.98l-0.69,0.63h-11.8L62.57,30.31z M63.33,6.62l2.01,1.94v7.28l-2.01,2.01l-0.73-0.73
	V7.24L63.33,6.62z M64.58,5.43h11.4l0.69,0.63l-2.11,1.98H66l-2.08-1.98L64.58,5.43z M65.57,16.8h8.44l1.38,1.35l-1.38,1.32h-8.44
	l-1.35-1.32L65.57,16.8z M76.28,29.75l-2.01-1.94v-7.35l2.01-2.04L77,19.14v9.99L76.28,29.75z"/>
<polygon points="81.03,6.62 83.04,8.56 83.04,15.85 81.03,17.86 80.3,17.13 80.3,7.24 "/>
<polygon points="80.3,29.13 80.3,19.14 81.03,18.42 83.04,20.46 83.04,27.81 81.03,29.75 "/>
<polygon points="93.38,6.06 91.31,8.04 83.69,8.04 81.59,6.06 82.28,5.43 92.72,5.43 "/>
<polygon points="92.72,30.94 82.28,30.94 81.59,30.31 83.69,28.34 91.31,28.34 93.38,30.31 "/>
<polygon points="94.7,7.24 94.7,17.13 93.98,17.86 91.97,15.85 91.97,8.56 93.98,6.62 "/>
<polygon points="93.98,29.75 91.97,27.81 91.97,20.46 93.98,18.42 94.7,19.14 94.7,29.13 "/>
<path d="M98.72,6.62l2.01,1.94v7.28l-2.01,2.01L98,17.13V7.24L98.72,6.62z M98,29.13v-9.99l0.73-0.73l2.01,2.04v7.35l-2.01,1.94
	L98,29.13z M111.08,6.06L109,8.04h-7.61l-2.11-1.98l0.69-0.63h10.45L111.08,6.06z M110.42,30.94H99.97l-0.69-0.63l2.11-1.98H109
	l2.08,1.98L110.42,30.94z M107.16,12.22l1.09,2.5l-3.43,6.89l-2.57,1.02l-0.26-0.96l4.42-9.16L107.16,12.22z M112.4,7.24v9.89
	l-0.73,0.73l-2.01-2.01V8.56l2.01-1.94L112.4,7.24z M111.67,29.75l-2.01-1.94v-7.35l2.01-2.04l0.73,0.73v9.99L111.67,29.75z"/>
</svg>
